<?xml version="1.0" encoding="utf-8" standalone="no"?>
<!DOCTYPE svg PUBLIC "-//W3C//DTD SVG 1.1//EN"
  "http://www.w3.org/Graphics/SVG/1.1/DTD/svg11.dtd">
<svg xmlns:xlink="http://www.w3.org/1999/xlink" width="792pt" height="288pt" viewBox="0 0 792 288" xmlns="http://www.w3.org/2000/svg" version="1.1">
 <metadata>
  <rdf:RDF xmlns:dc="http://purl.org/dc/elements/1.1/" xmlns:cc="http://creativecommons.org/ns#" xmlns:rdf="http://www.w3.org/1999/02/22-rdf-syntax-ns#">
   <cc:Work>
    <dc:type rdf:resource="http://purl.org/dc/dcmitype/StillImage"/>
    <dc:date>2026-09-19T15:32:00.770988</dc:date>
    <dc:format>image/svg+xml</dc:format>
    <dc:creator>
     <cc:Agent>
      <dc:title>Matplotlib v3.11.2, https://matplotlib.org/</dc:title>
     </cc:Agent>
    </dc:creator>
   </cc:Work>
  </rdf:RDF>
 </metadata>
 <defs>
  <style type="text/css">*{stroke-linejoin: round; stroke-linecap: butt}</style>
 </defs>
 <g id="figure_1">
  <g id="patch_1">
   <path d="M 0 288 
L 792 288 
L 792 0 
L 0 0 
z
" style="fill: #ffffff"/>
  </g>
  <g id="axes_1">
   <g id="patch_2">
    <path d="M 30.363521 253.998979 
L 392.04 253.998979 
L 392.04 21.001657 
L 30.363521 21.001657 
z
" style="fill: #ffffff"/>
   </g>
   <g id="matplotlib.axis_1">
    <g id="xtick_1">
     <g id="line2d_1">
      <path d="M 46.803361 253.998979 
L 46.803361 21.001657 
" clip-path="url(#p5091e52940)" style="fill: none; stroke: #b0b0b0; stroke-opacity: 0.2; stroke-width: 0.8; stroke-linecap: square"/>
     </g>
     <g id="line2d_2">
      <defs>
       <path id="mfce0c420e2" d="M 0 0 
L 0 3.5 
" style="stroke: #000000; stroke-width: 0.8"/>
      </defs>
      <g>
       <use xlink:href="#mfce0c420e2" x="46.803361" y="253.998979" style="stroke: #000000; stroke-width: 0.8"/>
      </g>
     </g>
     <g id="text_1">
      <!-- 0 -->
      <g transform="translate(43.622111 268.596635) scale(0.1 -0.1)">
       <defs>
        <path id="DejaVuSans-13" d="M 2034 4250 
Q 1547 4250 1301 3770 
Q 1056 3291 1056 2328 
Q 1056 1369 1301 889 
Q 1547 409 2034 409 
Q 2525 409 2770 889 
Q 3016 1369 3016 2328 
Q 3016 3291 2770 3770 
Q 2525 4250 2034 4250 
z
M 2034 4750 
Q 2819 4750 3233 4129 
Q 3647 3509 3647 2328 
Q 3647 1150 3233 529 
Q 2819 -91 2034 -91 
Q 1250 -91 836 529 
Q 422 1150 422 2328 
Q 422 3509 836 4129 
Q 1250 4750 2034 4750 
z
" transform="scale(0.015625)"/>
       </defs>
       <use xlink:href="#DejaVuSans-13"/>
      </g>
     </g>
    </g>
    <g id="xtick_2">
     <g id="line2d_3">
      <path d="M 112.562721 253.998979 
L 112.562721 21.001657 
" clip-path="url(#p5091e52940)" style="fill: none; stroke: #b0b0b0; stroke-opacity: 0.2; stroke-width: 0.8; stroke-linecap: square"/>
     </g>
     <g id="line2d_4">
      <g>
       <use xlink:href="#mfce0c420e2" x="112.562721" y="253.998979" style="stroke: #000000; stroke-width: 0.8"/>
      </g>
     </g>
     <g id="text_2">
      <!-- 200 -->
      <g transform="translate(103.018971 268.596635) scale(0.1 -0.1)">
       <defs>
        <path id="DejaVuSans-15" d="M 1228 531 
L 3431 531 
L 3431 0 
L 469 0 
L 469 531 
Q 828 903 1448 1529 
Q 2069 2156 2228 2338 
Q 2531 2678 2651 2914 
Q 2772 3150 2772 3378 
Q 2772 3750 2511 3984 
Q 2250 4219 1831 4219 
Q 1534 4219 1204 4116 
Q 875 4013 500 3803 
L 500 4441 
Q 881 4594 1212 4672 
Q 1544 4750 1819 4750 
Q 2544 4750 2975 4387 
Q 3406 4025 3406 3419 
Q 3406 3131 3298 2873 
Q 3191 2616 2906 2266 
Q 2828 2175 2409 1742 
Q 1991 1309 1228 531 
z
" transform="scale(0.015625)"/>
       </defs>
       <use xlink:href="#DejaVuSans-15"/>
       <use xlink:href="#DejaVuSans-13" transform="translate(63.625 0)"/>
       <use xlink:href="#DejaVuSans-13" transform="translate(127.25 0)"/>
      </g>
     </g>
    </g>
    <g id="xtick_3">
     <g id="line2d_5">
      <path d="M 178.322081 253.998979 
L 178.322081 21.001657 
" clip-path="url(#p5091e52940)" style="fill: none; stroke: #b0b0b0; stroke-opacity: 0.2; stroke-width: 0.8; stroke-linecap: square"/>
     </g>
     <g id="line2d_6">
      <g>
       <use xlink:href="#mfce0c420e2" x="178.322081" y="253.998979" style="stroke: #000000; stroke-width: 0.8"/>
      </g>
     </g>
     <g id="text_3">
      <!-- 400 -->
      <g transform="translate(168.778331 268.596635) scale(0.1 -0.1)">
       <defs>
        <path id="DejaVuSans-17" d="M 2419 4116 
L 825 1625 
L 2419 1625 
L 2419 4116 
z
M 2253 4666 
L 3047 4666 
L 3047 1625 
L 3713 1625 
L 3713 1100 
L 3047 1100 
L 3047 0 
L 2419 0 
L 2419 1100 
L 313 1100 
L 313 1709 
L 2253 4666 
z
" transform="scale(0.015625)"/>
       </defs>
       <use xlink:href="#DejaVuSans-17"/>
       <use xlink:href="#DejaVuSans-13" transform="translate(63.625 0)"/>
       <use xlink:href="#DejaVuSans-13" transform="translate(127.25 0)"/>
      </g>
     </g>
    </g>
    <g id="xtick_4">
     <g id="line2d_7">
      <path d="M 244.081441 253.998979 
L 244.081441 21.001657 
" clip-path="url(#p5091e52940)" style="fill: none; stroke: #b0b0b0; stroke-opacity: 0.2; stroke-width: 0.8; stroke-linecap: square"/>
     </g>
     <g id="line2d_8">
      <g>
       <use xlink:href="#mfce0c420e2" x="244.081441" y="253.998979" style="stroke: #000000; stroke-width: 0.8"/>
      </g>
     </g>
     <g id="text_4">
      <!-- 600 -->
      <g transform="translate(234.537691 268.596635) scale(0.1 -0.1)">
       <defs>
        <path id="DejaVuSans-19" d="M 2113 2584 
Q 1688 2584 1439 2293 
Q 1191 2003 1191 1497 
Q 1191 994 1439 701 
Q 1688 409 2113 409 
Q 2538 409 2786 701 
Q 3034 994 3034 1497 
Q 3034 2003 2786 2293 
Q 2538 2584 2113 2584 
z
M 3366 4563 
L 3366 3988 
Q 3128 4100 2886 4159 
Q 2644 4219 2406 4219 
Q 1781 4219 1451 3797 
Q 1122 3375 1075 2522 
Q 1259 2794 1537 2939 
Q 1816 3084 2150 3084 
Q 2853 3084 3261 2657 
Q 3669 2231 3669 1497 
Q 3669 778 3244 343 
Q 2819 -91 2113 -91 
Q 1303 -91 875 529 
Q 447 1150 447 2328 
Q 447 3434 972 4092 
Q 1497 4750 2381 4750 
Q 2619 4750 2861 4703 
Q 3103 4656 3366 4563 
z
" transform="scale(0.015625)"/>
       </defs>
       <use xlink:href="#DejaVuSans-19"/>
       <use xlink:href="#DejaVuSans-13" transform="translate(63.625 0)"/>
       <use xlink:href="#DejaVuSans-13" transform="translate(127.25 0)"/>
      </g>
     </g>
    </g>
    <g id="xtick_5">
     <g id="line2d_9">
      <path d="M 309.8408 253.998979 
L 309.8408 21.001657 
" clip-path="url(#p5091e52940)" style="fill: none; stroke: #b0b0b0; stroke-opacity: 0.2; stroke-width: 0.8; stroke-linecap: square"/>
     </g>
     <g id="line2d_10">
      <g>
       <use xlink:href="#mfce0c420e2" x="309.8408" y="253.998979" style="stroke: #000000; stroke-width: 0.8"/>
      </g>
     </g>
     <g id="text_5">
      <!-- 800 -->
      <g transform="translate(300.29705 268.596635) scale(0.1 -0.1)">
       <defs>
        <path id="DejaVuSans-1b" d="M 2034 2216 
Q 1584 2216 1326 1975 
Q 1069 1734 1069 1313 
Q 1069 891 1326 650 
Q 1584 409 2034 409 
Q 2484 409 2743 651 
Q 3003 894 3003 1313 
Q 3003 1734 2745 1975 
Q 2488 2216 2034 2216 
z
M 1403 2484 
Q 997 2584 770 2862 
Q 544 3141 544 3541 
Q 544 4100 942 4425 
Q 1341 4750 2034 4750 
Q 2731 4750 3128 4425 
Q 3525 4100 3525 3541 
Q 3525 3141 3298 2862 
Q 3072 2584 2669 2484 
Q 3125 2378 3379 2068 
Q 3634 1759 3634 1313 
Q 3634 634 3220 271 
Q 2806 -91 2034 -91 
Q 1263 -91 848 271 
Q 434 634 434 1313 
Q 434 1759 690 2068 
Q 947 2378 1403 2484 
z
M 1172 3481 
Q 1172 3119 1398 2916 
Q 1625 2713 2034 2713 
Q 2441 2713 2670 2916 
Q 2900 3119 2900 3481 
Q 2900 3844 2670 4047 
Q 2441 4250 2034 4250 
Q 1625 4250 1398 4047 
Q 1172 3844 1172 3481 
z
" transform="scale(0.015625)"/>
       </defs>
       <use xlink:href="#DejaVuSans-1b"/>
       <use xlink:href="#DejaVuSans-13" transform="translate(63.625 0)"/>
       <use xlink:href="#DejaVuSans-13" transform="translate(127.25 0)"/>
      </g>
     </g>
    </g>
    <g id="xtick_6">
     <g id="line2d_11">
      <path d="M 375.60016 253.998979 
L 375.60016 21.001657 
" clip-path="url(#p5091e52940)" style="fill: none; stroke: #b0b0b0; stroke-opacity: 0.2; stroke-width: 0.8; stroke-linecap: square"/>
     </g>
     <g id="line2d_12">
      <g>
       <use xlink:href="#mfce0c420e2" x="375.60016" y="253.998979" style="stroke: #000000; stroke-width: 0.8"/>
      </g>
     </g>
     <g id="text_6">
      <!-- 1000 -->
      <g transform="translate(362.87516 268.596635) scale(0.1 -0.1)">
       <defs>
        <path id="DejaVuSans-14" d="M 794 531 
L 1825 531 
L 1825 4091 
L 703 3866 
L 703 4441 
L 1819 4666 
L 2450 4666 
L 2450 531 
L 3481 531 
L 3481 0 
L 794 0 
L 794 531 
z
" transform="scale(0.015625)"/>
       </defs>
       <use xlink:href="#DejaVuSans-14"/>
       <use xlink:href="#DejaVuSans-13" transform="translate(63.625 0)"/>
       <use xlink:href="#DejaVuSans-13" transform="translate(127.25 0)"/>
       <use xlink:href="#DejaVuSans-13" transform="translate(190.875 0)"/>
      </g>
     </g>
    </g>
    <g id="text_7">
     <!-- Optimizer steps -->
     <g transform="translate(171.717386 282.597416) scale(0.1 -0.1)">
      <defs>
       <path id="DejaVuSans-32" d="M 2522 4238 
Q 1834 4238 1429 3725 
Q 1025 3213 1025 2328 
Q 1025 1447 1429 934 
Q 1834 422 2522 422 
Q 3209 422 3611 934 
Q 4013 1447 4013 2328 
Q 4013 3213 3611 3725 
Q 3209 4238 2522 4238 
z
M 2522 4750 
Q 3503 4750 4090 4092 
Q 4678 3434 4678 2328 
Q 4678 1225 4090 567 
Q 3503 -91 2522 -91 
Q 1538 -91 948 565 
Q 359 1222 359 2328 
Q 359 3434 948 4092 
Q 1538 4750 2522 4750 
z
" transform="scale(0.015625)"/>
       <path id="DejaVuSans-53" d="M 1159 525 
L 1159 -1331 
L 581 -1331 
L 581 3500 
L 1159 3500 
L 1159 2969 
Q 1341 3281 1617 3432 
Q 1894 3584 2278 3584 
Q 2916 3584 3314 3078 
Q 3713 2572 3713 1747 
Q 3713 922 3314 415 
Q 2916 -91 2278 -91 
Q 1894 -91 1617 61 
Q 1341 213 1159 525 
z
M 3116 1747 
Q 3116 2381 2855 2742 
Q 2594 3103 2138 3103 
Q 1681 3103 1420 2742 
Q 1159 2381 1159 1747 
Q 1159 1113 1420 752 
Q 1681 391 2138 391 
Q 2594 391 2855 752 
Q 3116 1113 3116 1747 
z
" transform="scale(0.015625)"/>
       <path id="DejaVuSans-57" d="M 1172 4494 
L 1172 3500 
L 2356 3500 
L 2356 3053 
L 1172 3053 
L 1172 1153 
Q 1172 725 1289 603 
Q 1406 481 1766 481 
L 2356 481 
L 2356 0 
L 1766 0 
Q 1100 0 847 248 
Q 594 497 594 1153 
L 594 3053 
L 172 3053 
L 172 3500 
L 594 3500 
L 594 4494 
L 1172 4494 
z
" transform="scale(0.015625)"/>
       <path id="DejaVuSans-4c" d="M 603 3500 
L 1178 3500 
L 1178 0 
L 603 0 
L 603 3500 
z
M 603 4863 
L 1178 4863 
L 1178 4134 
L 603 4134 
L 603 4863 
z
" transform="scale(0.015625)"/>
       <path id="DejaVuSans-50" d="M 3328 2828 
Q 3544 3216 3844 3400 
Q 4144 3584 4550 3584 
Q 5097 3584 5394 3201 
Q 5691 2819 5691 2113 
L 5691 0 
L 5113 0 
L 5113 2094 
Q 5113 2597 4934 2840 
Q 4756 3084 4391 3084 
Q 3944 3084 3684 2787 
Q 3425 2491 3425 1978 
L 3425 0 
L 2847 0 
L 2847 2094 
Q 2847 2600 2669 2842 
Q 2491 3084 2119 3084 
Q 1678 3084 1418 2786 
Q 1159 2488 1159 1978 
L 1159 0 
L 581 0 
L 581 3500 
L 1159 3500 
L 1159 2956 
Q 1356 3278 1631 3431 
Q 1906 3584 2284 3584 
Q 2666 3584 2933 3390 
Q 3200 3197 3328 2828 
z
" transform="scale(0.015625)"/>
       <path id="DejaVuSans-5d" d="M 353 3500 
L 3084 3500 
L 3084 2975 
L 922 459 
L 3084 459 
L 3084 0 
L 275 0 
L 275 525 
L 2438 3041 
L 353 3041 
L 353 3500 
z
" transform="scale(0.015625)"/>
       <path id="DejaVuSans-48" d="M 3597 1894 
L 3597 1613 
L 953 1613 
Q 991 1019 1311 708 
Q 1631 397 2203 397 
Q 2534 397 2845 478 
Q 3156 559 3463 722 
L 3463 178 
Q 3153 47 2828 -22 
Q 2503 -91 2169 -91 
Q 1331 -91 842 396 
Q 353 884 353 1716 
Q 353 2575 817 3079 
Q 1281 3584 2069 3584 
Q 2775 3584 3186 3129 
Q 3597 2675 3597 1894 
z
M 3022 2063 
Q 3016 2534 2758 2815 
Q 2500 3097 2075 3097 
Q 1594 3097 1305 2825 
Q 1016 2553 972 2059 
L 3022 2063 
z
" transform="scale(0.015625)"/>
       <path id="DejaVuSans-55" d="M 2631 2963 
Q 2534 3019 2420 3045 
Q 2306 3072 2169 3072 
Q 1681 3072 1420 2755 
Q 1159 2438 1159 1844 
L 1159 0 
L 581 0 
L 581 3500 
L 1159 3500 
L 1159 2956 
Q 1341 3275 1631 3429 
Q 1922 3584 2338 3584 
Q 2397 3584 2469 3576 
Q 2541 3569 2628 3553 
L 2631 2963 
z
" transform="scale(0.015625)"/>
       <path id="DejaVuSans-3" transform="scale(0.015625)"/>
       <path id="DejaVuSans-56" d="M 2834 3397 
L 2834 2853 
Q 2591 2978 2328 3040 
Q 2066 3103 1784 3103 
Q 1356 3103 1142 2972 
Q 928 2841 928 2578 
Q 928 2378 1081 2264 
Q 1234 2150 1697 2047 
L 1894 2003 
Q 2506 1872 2764 1633 
Q 3022 1394 3022 966 
Q 3022 478 2636 193 
Q 2250 -91 1575 -91 
Q 1294 -91 989 -36 
Q 684 19 347 128 
L 347 722 
Q 666 556 975 473 
Q 1284 391 1588 391 
Q 1994 391 2212 530 
Q 2431 669 2431 922 
Q 2431 1156 2273 1281 
Q 2116 1406 1581 1522 
L 1381 1569 
Q 847 1681 609 1914 
Q 372 2147 372 2553 
Q 372 3047 722 3315 
Q 1072 3584 1716 3584 
Q 2034 3584 2315 3537 
Q 2597 3491 2834 3397 
z
" transform="scale(0.015625)"/>
      </defs>
      <use xlink:href="#DejaVuSans-32"/>
      <use xlink:href="#DejaVuSans-53" transform="translate(78.71875 0)"/>
      <use xlink:href="#DejaVuSans-57" transform="translate(142.203125 0)"/>
      <use xlink:href="#DejaVuSans-4c" transform="translate(181.40625 0)"/>
      <use xlink:href="#DejaVuSans-50" transform="translate(209.1875 0)"/>
      <use xlink:href="#DejaVuSans-4c" transform="translate(306.59375 0)"/>
      <use xlink:href="#DejaVuSans-5d" transform="translate(334.375 0)"/>
      <use xlink:href="#DejaVuSans-48" transform="translate(386.859375 0)"/>
      <use xlink:href="#DejaVuSans-55" transform="translate(448.390625 0)"/>
      <use xlink:href="#DejaVuSans-3" transform="translate(489.5 0)"/>
      <use xlink:href="#DejaVuSans-56" transform="translate(521.28125 0)"/>
      <use xlink:href="#DejaVuSans-57" transform="translate(573.375 0)"/>
      <use xlink:href="#DejaVuSans-48" transform="translate(612.578125 0)"/>
      <use xlink:href="#DejaVuSans-53" transform="translate(674.109375 0)"/>
      <use xlink:href="#DejaVuSans-56" transform="translate(737.59375 0)"/>
     </g>
    </g>
   </g>
   <g id="matplotlib.axis_2">
    <g id="ytick_1">
     <g id="line2d_13">
      <path d="M 30.363521 250.072798 
L 392.04 250.072798 
" clip-path="url(#p5091e52940)" style="fill: none; stroke: #b0b0b0; stroke-opacity: 0.2; stroke-width: 0.8; stroke-linecap: square"/>
     </g>
     <g id="line2d_14">
      <defs>
       <path id="m6cb8876baa" d="M 0 0 
L -3.5 0 
" style="stroke: #000000; stroke-width: 0.8"/>
      </defs>
      <g>
       <use xlink:href="#m6cb8876baa" x="30.363521" y="250.072798" style="stroke: #000000; stroke-width: 0.8"/>
      </g>
     </g>
     <g id="text_8">
      <!-- 4 -->
      <g transform="translate(17.001021 253.871627) scale(0.1 -0.1)">
       <use xlink:href="#DejaVuSans-17"/>
      </g>
     </g>
    </g>
    <g id="ytick_2">
     <g id="line2d_15">
      <path d="M 30.363521 208.548311 
L 392.04 208.548311 
" clip-path="url(#p5091e52940)" style="fill: none; stroke: #b0b0b0; stroke-opacity: 0.2; stroke-width: 0.8; stroke-linecap: square"/>
     </g>
     <g id="line2d_16">
      <g>
       <use xlink:href="#m6cb8876baa" x="30.363521" y="208.548311" style="stroke: #000000; stroke-width: 0.8"/>
      </g>
     </g>
     <g id="text_9">
      <!-- 5 -->
      <g transform="translate(17.001021 212.347139) scale(0.1 -0.1)">
       <defs>
        <path id="DejaVuSans-18" d="M 691 4666 
L 3169 4666 
L 3169 4134 
L 1269 4134 
L 1269 2991 
Q 1406 3038 1543 3061 
Q 1681 3084 1819 3084 
Q 2600 3084 3056 2656 
Q 3513 2228 3513 1497 
Q 3513 744 3044 326 
Q 2575 -91 1722 -91 
Q 1428 -91 1123 -41 
Q 819 9 494 109 
L 494 744 
Q 775 591 1075 516 
Q 1375 441 1709 441 
Q 2250 441 2565 725 
Q 2881 1009 2881 1497 
Q 2881 1984 2565 2268 
Q 2250 2553 1709 2553 
Q 1456 2553 1204 2497 
Q 953 2441 691 2322 
L 691 4666 
z
" transform="scale(0.015625)"/>
       </defs>
       <use xlink:href="#DejaVuSans-18"/>
      </g>
     </g>
    </g>
    <g id="ytick_3">
     <g id="line2d_17">
      <path d="M 30.363521 167.023823 
L 392.04 167.023823 
" clip-path="url(#p5091e52940)" style="fill: none; stroke: #b0b0b0; stroke-opacity: 0.2; stroke-width: 0.8; stroke-linecap: square"/>
     </g>
     <g id="line2d_18">
      <g>
       <use xlink:href="#m6cb8876baa" x="30.363521" y="167.023823" style="stroke: #000000; stroke-width: 0.8"/>
      </g>
     </g>
     <g id="text_10">
      <!-- 6 -->
      <g transform="translate(17.001021 170.822652) scale(0.1 -0.1)">
       <use xlink:href="#DejaVuSans-19"/>
      </g>
     </g>
    </g>
    <g id="ytick_4">
     <g id="line2d_19">
      <path d="M 30.363521 125.499336 
L 392.04 125.499336 
" clip-path="url(#p5091e52940)" style="fill: none; stroke: #b0b0b0; stroke-opacity: 0.2; stroke-width: 0.8; stroke-linecap: square"/>
     </g>
     <g id="line2d_20">
      <g>
       <use xlink:href="#m6cb8876baa" x="30.363521" y="125.499336" style="stroke: #000000; stroke-width: 0.8"/>
      </g>
     </g>
     <g id="text_11">
      <!-- 7 -->
      <g transform="translate(17.001021 129.298164) scale(0.1 -0.1)">
       <defs>
        <path id="DejaVuSans-1a" d="M 525 4666 
L 3525 4666 
L 3525 4397 
L 1831 0 
L 1172 0 
L 2766 4134 
L 525 4134 
L 525 4666 
z
" transform="scale(0.015625)"/>
       </defs>
       <use xlink:href="#DejaVuSans-1a"/>
      </g>
     </g>
    </g>
    <g id="ytick_5">
     <g id="line2d_21">
      <path d="M 30.363521 83.974848 
L 392.04 83.974848 
" clip-path="url(#p5091e52940)" style="fill: none; stroke: #b0b0b0; stroke-opacity: 0.2; stroke-width: 0.8; stroke-linecap: square"/>
     </g>
     <g id="line2d_22">
      <g>
       <use xlink:href="#m6cb8876baa" x="30.363521" y="83.974848" style="stroke: #000000; stroke-width: 0.8"/>
      </g>
     </g>
     <g id="text_12">
      <!-- 8 -->
      <g transform="translate(17.001021 87.773676) scale(0.1 -0.1)">
       <use xlink:href="#DejaVuSans-1b"/>
      </g>
     </g>
    </g>
    <g id="ytick_6">
     <g id="line2d_23">
      <path d="M 30.363521 42.450361 
L 392.04 42.450361 
" clip-path="url(#p5091e52940)" style="fill: none; stroke: #b0b0b0; stroke-opacity: 0.2; stroke-width: 0.8; stroke-linecap: square"/>
     </g>
     <g id="line2d_24">
      <g>
       <use xlink:href="#m6cb8876baa" x="30.363521" y="42.450361" style="stroke: #000000; stroke-width: 0.8"/>
      </g>
     </g>
     <g id="text_13">
      <!-- 9 -->
      <g transform="translate(17.001021 46.249189) scale(0.1 -0.1)">
       <defs>
        <path id="DejaVuSans-1c" d="M 703 97 
L 703 672 
Q 941 559 1184 500 
Q 1428 441 1663 441 
Q 2288 441 2617 861 
Q 2947 1281 2994 2138 
Q 2813 1869 2534 1725 
Q 2256 1581 1919 1581 
Q 1219 1581 811 2004 
Q 403 2428 403 3163 
Q 403 3881 828 4315 
Q 1253 4750 1959 4750 
Q 2769 4750 3195 4129 
Q 3622 3509 3622 2328 
Q 3622 1225 3098 567 
Q 2575 -91 1691 -91 
Q 1453 -91 1209 -44 
Q 966 3 703 97 
z
M 1959 2075 
Q 2384 2075 2632 2365 
Q 2881 2656 2881 3163 
Q 2881 3666 2632 3958 
Q 2384 4250 1959 4250 
Q 1534 4250 1286 3958 
Q 1038 3666 1038 3163 
Q 1038 2656 1286 2365 
Q 1534 2075 1959 2075 
z
" transform="scale(0.015625)"/>
       </defs>
       <use xlink:href="#DejaVuSans-1c"/>
      </g>
     </g>
    </g>
    <g id="text_14">
     <!-- Cross-entropy (nats/token) -->
     <g transform="translate(10.598677 204.308131) rotate(-90) scale(0.1 -0.1)">
      <defs>
       <path id="DejaVuSans-26" d="M 4122 4306 
L 4122 3641 
Q 3803 3938 3442 4084 
Q 3081 4231 2675 4231 
Q 1875 4231 1450 3742 
Q 1025 3253 1025 2328 
Q 1025 1406 1450 917 
Q 1875 428 2675 428 
Q 3081 428 3442 575 
Q 3803 722 4122 1019 
L 4122 359 
Q 3791 134 3420 21 
Q 3050 -91 2638 -91 
Q 1578 -91 968 557 
Q 359 1206 359 2328 
Q 359 3453 968 4101 
Q 1578 4750 2638 4750 
Q 3056 4750 3426 4639 
Q 3797 4528 4122 4306 
z
" transform="scale(0.015625)"/>
       <path id="DejaVuSans-52" d="M 1959 3097 
Q 1497 3097 1228 2736 
Q 959 2375 959 1747 
Q 959 1119 1226 758 
Q 1494 397 1959 397 
Q 2419 397 2687 759 
Q 2956 1122 2956 1747 
Q 2956 2369 2687 2733 
Q 2419 3097 1959 3097 
z
M 1959 3584 
Q 2709 3584 3137 3096 
Q 3566 2609 3566 1747 
Q 3566 888 3137 398 
Q 2709 -91 1959 -91 
Q 1206 -91 779 398 
Q 353 888 353 1747 
Q 353 2609 779 3096 
Q 1206 3584 1959 3584 
z
" transform="scale(0.015625)"/>
       <path id="DejaVuSans-10" d="M 313 2009 
L 1997 2009 
L 1997 1497 
L 313 1497 
L 313 2009 
z
" transform="scale(0.015625)"/>
       <path id="DejaVuSans-51" d="M 3513 2113 
L 3513 0 
L 2938 0 
L 2938 2094 
Q 2938 2591 2744 2837 
Q 2550 3084 2163 3084 
Q 1697 3084 1428 2787 
Q 1159 2491 1159 1978 
L 1159 0 
L 581 0 
L 581 3500 
L 1159 3500 
L 1159 2956 
Q 1366 3272 1645 3428 
Q 1925 3584 2291 3584 
Q 2894 3584 3203 3211 
Q 3513 2838 3513 2113 
z
" transform="scale(0.015625)"/>
       <path id="DejaVuSans-5c" d="M 2059 -325 
Q 1816 -950 1584 -1140 
Q 1353 -1331 966 -1331 
L 506 -1331 
L 506 -850 
L 844 -850 
Q 1081 -850 1212 -737 
Q 1344 -625 1503 -206 
L 1606 56 
L 191 3500 
L 800 3500 
L 1894 763 
L 2988 3500 
L 3597 3500 
L 2059 -325 
z
" transform="scale(0.015625)"/>
       <path id="DejaVuSans-b" d="M 1984 4856 
Q 1566 4138 1362 3434 
Q 1159 2731 1159 2009 
Q 1159 1288 1364 580 
Q 1569 -128 1984 -844 
L 1484 -844 
Q 1016 -109 783 600 
Q 550 1309 550 2009 
Q 550 2706 781 3412 
Q 1013 4119 1484 4856 
L 1984 4856 
z
" transform="scale(0.015625)"/>
       <path id="DejaVuSans-44" d="M 2194 1759 
Q 1497 1759 1228 1600 
Q 959 1441 959 1056 
Q 959 750 1161 570 
Q 1363 391 1709 391 
Q 2188 391 2477 730 
Q 2766 1069 2766 1631 
L 2766 1759 
L 2194 1759 
z
M 3341 1997 
L 3341 0 
L 2766 0 
L 2766 531 
Q 2569 213 2275 61 
Q 1981 -91 1556 -91 
Q 1019 -91 701 211 
Q 384 513 384 1019 
Q 384 1609 779 1909 
Q 1175 2209 1959 2209 
L 2766 2209 
L 2766 2266 
Q 2766 2663 2505 2880 
Q 2244 3097 1772 3097 
Q 1472 3097 1187 3025 
Q 903 2953 641 2809 
L 641 3341 
Q 956 3463 1253 3523 
Q 1550 3584 1831 3584 
Q 2591 3584 2966 3190 
Q 3341 2797 3341 1997 
z
" transform="scale(0.015625)"/>
       <path id="DejaVuSans-12" d="M 1625 4666 
L 2156 4666 
L 531 -594 
L 0 -594 
L 1625 4666 
z
" transform="scale(0.015625)"/>
       <path id="DejaVuSans-4e" d="M 581 4863 
L 1159 4863 
L 1159 1991 
L 2875 3500 
L 3609 3500 
L 1753 1863 
L 3688 0 
L 2938 0 
L 1159 1709 
L 1159 0 
L 581 0 
L 581 4863 
z
" transform="scale(0.015625)"/>
       <path id="DejaVuSans-c" d="M 513 4856 
L 1013 4856 
Q 1481 4119 1714 3412 
Q 1947 2706 1947 2009 
Q 1947 1309 1714 600 
Q 1481 -109 1013 -844 
L 513 -844 
Q 928 -128 1133 580 
Q 1338 1288 1338 2009 
Q 1338 2731 1133 3434 
Q 928 4138 513 4856 
z
" transform="scale(0.015625)"/>
      </defs>
      <use xlink:href="#DejaVuSans-26"/>
      <use xlink:href="#DejaVuSans-55" transform="translate(69.828125 0)"/>
      <use xlink:href="#DejaVuSans-52" transform="translate(108.734375 0)"/>
      <use xlink:href="#DejaVuSans-56" transform="translate(169.921875 0)"/>
      <use xlink:href="#DejaVuSans-56" transform="translate(222.015625 0)"/>
      <use xlink:href="#DejaVuSans-10" transform="translate(274.109375 0)"/>
      <use xlink:href="#DejaVuSans-48" transform="translate(310.1875 0)"/>
      <use xlink:href="#DejaVuSans-51" transform="translate(371.71875 0)"/>
      <use xlink:href="#DejaVuSans-57" transform="translate(435.09375 0)"/>
      <use xlink:href="#DejaVuSans-55" transform="translate(474.296875 0)"/>
      <use xlink:href="#DejaVuSans-52" transform="translate(513.203125 0)"/>
      <use xlink:href="#DejaVuSans-53" transform="translate(574.390625 0)"/>
      <use xlink:href="#DejaVuSans-5c" transform="translate(637.875 0)"/>
      <use xlink:href="#DejaVuSans-3" transform="translate(697.0625 0)"/>
      <use xlink:href="#DejaVuSans-b" transform="translate(728.84375 0)"/>
      <use xlink:href="#DejaVuSans-51" transform="translate(767.859375 0)"/>
      <use xlink:href="#DejaVuSans-44" transform="translate(831.234375 0)"/>
      <use xlink:href="#DejaVuSans-57" transform="translate(892.515625 0)"/>
      <use xlink:href="#DejaVuSans-56" transform="translate(931.71875 0)"/>
      <use xlink:href="#DejaVuSans-12" transform="translate(983.8125 0)"/>
      <use xlink:href="#DejaVuSans-57" transform="translate(1017.5 0)"/>
      <use xlink:href="#DejaVuSans-52" transform="translate(1056.703125 0)"/>
      <use xlink:href="#DejaVuSans-4e" transform="translate(1117.890625 0)"/>
      <use xlink:href="#DejaVuSans-48" transform="translate(1172.234375 0)"/>
      <use xlink:href="#DejaVuSans-51" transform="translate(1233.765625 0)"/>
      <use xlink:href="#DejaVuSans-c" transform="translate(1297.140625 0)"/>
     </g>
    </g>
   </g>
   <g id="line2d_25">
    <path d="M 47.132158 31.592445 
L 50.091329 93.946847 
L 53.379297 163.015456 
L 56.667265 193.013047 
L 59.955233 205.587711 
L 63.243201 220.244046 
L 66.531169 232.261518 
L 69.819137 237.73032 
L 73.107105 240.264515 
L 76.395073 241.92199 
L 79.683041 243.408191 
L 82.971009 240.292409 
L 86.258977 233.014556 
L 89.546945 229.884104 
L 92.834913 214.082878 
L 96.122881 202.596774 
L 99.410849 212.727247 
L 102.698817 215.1697 
L 105.986785 205.965249 
L 109.274753 203.265753 
L 112.562721 197.893108 
L 115.850689 197.778766 
L 119.138657 190.282833 
L 122.426625 187.201436 
L 125.714593 189.089713 
L 129.002561 188.795574 
L 132.290529 194.170631 
L 135.578497 203.113981 
L 138.866465 202.918713 
L 142.154433 196.890551 
L 145.442401 199.588231 
L 148.730369 192.998076 
L 152.018337 186.266914 
L 155.306305 178.493917 
L 158.594273 177.320869 
L 161.882241 184.877728 
L 165.170209 192.333394 
L 168.458177 188.572688 
L 171.746145 181.07031 
L 175.034113 178.750712 
L 178.322081 179.194376 
L 181.610049 181.996819 
L 184.898017 183.707466 
L 188.185985 178.270289 
L 191.473953 169.242728 
L 194.761921 178.857775 
L 198.049889 183.43031 
L 201.337857 189.875021 
L 204.625825 194.749722 
L 207.913793 197.628089 
L 211.201761 190.967398 
L 214.489729 185.007274 
L 217.777697 177.580442 
L 221.065665 174.463409 
L 224.353633 174.591294 
L 227.641601 177.59478 
L 230.929569 183.049437 
L 234.217537 187.267274 
L 237.505505 184.196354 
L 240.793473 180.008009 
L 244.081441 186.273185 
L 247.369409 185.026039 
L 250.657376 184.510664 
L 253.945344 183.97995 
L 257.233312 175.633709 
L 260.52128 173.787474 
L 263.809248 177.61238 
L 267.097216 174.370321 
L 270.385184 178.314046 
L 273.673152 187.920609 
L 276.96112 192.283958 
L 280.249088 194.751567 
L 283.537056 198.647349 
L 286.825024 204.126509 
L 290.112992 209.620145 
L 293.40096 206.799302 
L 296.688928 207.27156 
L 299.976896 207.328882 
L 303.264864 203.467561 
L 306.552832 202.775303 
L 309.8408 195.344451 
L 313.128768 190.536553 
L 316.416736 187.700452 
L 319.704704 194.515057 
L 322.992672 203.97639 
L 326.28064 207.650655 
L 329.568608 208.834403 
L 332.856576 204.778272 
L 336.144544 205.979987 
L 339.432512 211.625587 
L 342.72048 198.601153 
L 346.008448 188.735578 
L 349.296416 192.005717 
L 352.584384 191.478988 
L 355.872352 190.255575 
L 359.16032 186.589393 
L 362.448288 189.251655 
L 365.736256 183.669873 
L 369.024224 190.443414 
L 372.312192 192.487312 
L 375.60016 191.01722 
" clip-path="url(#p5091e52940)" style="fill: none; stroke: #2563eb; stroke-width: 1.6; stroke-linecap: square"/>
   </g>
   <g id="line2d_26">
    <path d="M 46.803361 31.644853 
L 53.379297 173.588626 
L 59.955233 212.777378 
L 66.531169 234.347148 
L 73.107105 239.291045 
L 79.683041 243.091737 
L 86.258977 233.601597 
L 92.834913 207.364386 
L 99.410849 215.785852 
L 105.986785 202.49718 
L 112.562721 194.161559 
L 119.138657 185.519621 
L 125.714593 196.191603 
L 132.290529 202.765653 
L 138.866465 193.489334 
L 145.442401 191.494261 
L 152.018337 181.731727 
L 158.594273 181.538882 
L 165.170209 191.540641 
L 171.746145 183.606878 
L 178.322081 180.473275 
L 184.898017 179.887232 
L 191.473953 173.304931 
L 198.049889 186.227296 
L 204.625825 194.05382 
L 211.201761 180.620464 
L 217.777697 176.959368 
L 224.353633 168.672436 
L 230.929569 182.960786 
L 237.505505 180.559141 
L 244.081441 184.353599 
L 250.657376 182.241221 
L 257.233312 179.24243 
L 263.809248 178.349347 
L 270.385184 183.849079 
L 276.96112 192.815588 
L 283.537056 198.761215 
L 290.112992 207.259049 
L 296.688928 209.470667 
L 303.264864 198.903754 
L 309.8408 191.04542 
L 316.416736 189.980202 
L 322.992672 204.960394 
L 329.568608 208.501451 
L 336.144544 208.249177 
L 342.72048 176.165199 
L 349.296416 193.080558 
L 355.872352 183.840417 
L 362.448288 184.332938 
L 369.024224 186.512031 
L 375.60016 186.071561 
" clip-path="url(#p5091e52940)" style="fill: none; stroke: #e76f24; stroke-width: 1.6; stroke-linecap: square"/>
   </g>
   <g id="patch_3">
    <path d="M 30.363521 253.998979 
L 30.363521 21.001657 
" style="fill: none; stroke: #000000; stroke-width: 0.8; stroke-linejoin: miter; stroke-linecap: square"/>
   </g>
   <g id="patch_4">
    <path d="M 392.04 253.998979 
L 392.04 21.001657 
" style="fill: none; stroke: #000000; stroke-width: 0.8; stroke-linejoin: miter; stroke-linecap: square"/>
   </g>
   <g id="patch_5">
    <path d="M 30.363521 253.998979 
L 392.04 253.998979 
" style="fill: none; stroke: #000000; stroke-width: 0.8; stroke-linejoin: miter; stroke-linecap: square"/>
   </g>
   <g id="patch_6">
    <path d="M 30.363521 21.001657 
L 392.04 21.001657 
" style="fill: none; stroke: #000000; stroke-width: 0.8; stroke-linejoin: miter; stroke-linecap: square"/>
   </g>
   <g id="legend_1">
    <g id="patch_7">
     <path d="M 329.765 59.00322 
L 385.04 59.00322 
Q 387.04 59.00322 387.04 57.00322 
L 387.04 28.001657 
Q 387.04 26.001657 385.04 26.001657 
L 329.765 26.001657 
Q 327.765 26.001657 327.765 28.001657 
L 327.765 57.00322 
Q 327.765 59.00322 329.765 59.00322 
z
" style="fill: #ffffff; opacity: 0.8; stroke: #cccccc; stroke-linejoin: miter"/>
    </g>
    <g id="line2d_27">
     <path d="M 331.765 34.100095 
L 341.765 34.100095 
L 351.765 34.100095 
" style="fill: none; stroke: #2563eb; stroke-width: 1.6; stroke-linecap: square"/>
    </g>
    <g id="text_15">
     <!-- train -->
     <g transform="translate(359.765 37.600095) scale(0.1 -0.1)">
      <use xlink:href="#DejaVuSans-57"/>
      <use xlink:href="#DejaVuSans-55" transform="translate(39.203125 0)"/>
      <use xlink:href="#DejaVuSans-44" transform="translate(80.3125 0)"/>
      <use xlink:href="#DejaVuSans-4c" transform="translate(141.59375 0)"/>
      <use xlink:href="#DejaVuSans-51" transform="translate(169.375 0)"/>
     </g>
    </g>
    <g id="line2d_28">
     <path d="M 331.765 49.100876 
L 341.765 49.100876 
L 351.765 49.100876 
" style="fill: none; stroke: #e76f24; stroke-width: 1.6; stroke-linecap: square"/>
    </g>
    <g id="text_16">
     <!-- eval -->
     <g transform="translate(359.765 52.600876) scale(0.1 -0.1)">
      <defs>
       <path id="DejaVuSans-59" d="M 191 3500 
L 800 3500 
L 1894 563 
L 2988 3500 
L 3597 3500 
L 2284 0 
L 1503 0 
L 191 3500 
z
" transform="scale(0.015625)"/>
       <path id="DejaVuSans-4f" d="M 603 4863 
L 1178 4863 
L 1178 0 
L 603 0 
L 603 4863 
z
" transform="scale(0.015625)"/>
      </defs>
      <use xlink:href="#DejaVuSans-48"/>
      <use xlink:href="#DejaVuSans-59" transform="translate(61.53125 0)"/>
      <use xlink:href="#DejaVuSans-44" transform="translate(120.71875 0)"/>
      <use xlink:href="#DejaVuSans-4f" transform="translate(182 0)"/>
     </g>
    </g>
   </g>
  </g>
  <g id="axes_2">
   <g id="patch_8">
    <path d="M 427.323281 253.998979 
L 788.99976 253.998979 
L 788.99976 21.001657 
L 427.323281 21.001657 
z
" style="fill: #ffffff"/>
   </g>
   <g id="matplotlib.axis_3">
    <g id="xtick_7">
     <g id="line2d_29">
      <path d="M 442.560366 253.998979 
L 442.560366 21.001657 
" clip-path="url(#pa065a32e80)" style="fill: none; stroke: #b0b0b0; stroke-opacity: 0.2; stroke-width: 0.8; stroke-linecap: square"/>
     </g>
     <g id="line2d_30">
      <g>
       <use xlink:href="#mfce0c420e2" x="442.560366" y="253.998979" style="stroke: #000000; stroke-width: 0.8"/>
      </g>
     </g>
     <g id="text_17">
      <!-- 0 -->
      <g transform="translate(439.379116 268.596635) scale(0.1 -0.1)">
       <use xlink:href="#DejaVuSans-13"/>
      </g>
     </g>
    </g>
    <g id="xtick_8">
     <g id="line2d_31">
      <path d="M 513.692616 253.998979 
L 513.692616 21.001657 
" clip-path="url(#pa065a32e80)" style="fill: none; stroke: #b0b0b0; stroke-opacity: 0.2; stroke-width: 0.8; stroke-linecap: square"/>
     </g>
     <g id="line2d_32">
      <g>
       <use xlink:href="#mfce0c420e2" x="513.692616" y="253.998979" style="stroke: #000000; stroke-width: 0.8"/>
      </g>
     </g>
     <g id="text_18">
      <!-- 1 -->
      <g transform="translate(510.511366 268.596635) scale(0.1 -0.1)">
       <use xlink:href="#DejaVuSans-14"/>
      </g>
     </g>
    </g>
    <g id="xtick_9">
     <g id="line2d_33">
      <path d="M 584.824866 253.998979 
L 584.824866 21.001657 
" clip-path="url(#pa065a32e80)" style="fill: none; stroke: #b0b0b0; stroke-opacity: 0.2; stroke-width: 0.8; stroke-linecap: square"/>
     </g>
     <g id="line2d_34">
      <g>
       <use xlink:href="#mfce0c420e2" x="584.824866" y="253.998979" style="stroke: #000000; stroke-width: 0.8"/>
      </g>
     </g>
     <g id="text_19">
      <!-- 2 -->
      <g transform="translate(581.643616 268.596635) scale(0.1 -0.1)">
       <use xlink:href="#DejaVuSans-15"/>
      </g>
     </g>
    </g>
    <g id="xtick_10">
     <g id="line2d_35">
      <path d="M 655.957116 253.998979 
L 655.957116 21.001657 
" clip-path="url(#pa065a32e80)" style="fill: none; stroke: #b0b0b0; stroke-opacity: 0.2; stroke-width: 0.8; stroke-linecap: square"/>
     </g>
     <g id="line2d_36">
      <g>
       <use xlink:href="#mfce0c420e2" x="655.957116" y="253.998979" style="stroke: #000000; stroke-width: 0.8"/>
      </g>
     </g>
     <g id="text_20">
      <!-- 3 -->
      <g transform="translate(652.775866 268.596635) scale(0.1 -0.1)">
       <defs>
        <path id="DejaVuSans-16" d="M 2597 2516 
Q 3050 2419 3304 2112 
Q 3559 1806 3559 1356 
Q 3559 666 3084 287 
Q 2609 -91 1734 -91 
Q 1441 -91 1130 -33 
Q 819 25 488 141 
L 488 750 
Q 750 597 1062 519 
Q 1375 441 1716 441 
Q 2309 441 2620 675 
Q 2931 909 2931 1356 
Q 2931 1769 2642 2001 
Q 2353 2234 1838 2234 
L 1294 2234 
L 1294 2753 
L 1863 2753 
Q 2328 2753 2575 2939 
Q 2822 3125 2822 3475 
Q 2822 3834 2567 4026 
Q 2313 4219 1838 4219 
Q 1578 4219 1281 4162 
Q 984 4106 628 3988 
L 628 4550 
Q 988 4650 1302 4700 
Q 1616 4750 1894 4750 
Q 2613 4750 3031 4423 
Q 3450 4097 3450 3541 
Q 3450 3153 3228 2886 
Q 3006 2619 2597 2516 
z
" transform="scale(0.015625)"/>
       </defs>
       <use xlink:href="#DejaVuSans-16"/>
      </g>
     </g>
    </g>
    <g id="xtick_11">
     <g id="line2d_37">
      <path d="M 727.089366 253.998979 
L 727.089366 21.001657 
" clip-path="url(#pa065a32e80)" style="fill: none; stroke: #b0b0b0; stroke-opacity: 0.2; stroke-width: 0.8; stroke-linecap: square"/>
     </g>
     <g id="line2d_38">
      <g>
       <use xlink:href="#mfce0c420e2" x="727.089366" y="253.998979" style="stroke: #000000; stroke-width: 0.8"/>
      </g>
     </g>
     <g id="text_21">
      <!-- 4 -->
      <g transform="translate(723.908116 268.596635) scale(0.1 -0.1)">
       <use xlink:href="#DejaVuSans-17"/>
      </g>
     </g>
    </g>
    <g id="text_22">
     <!-- Run wall time (minutes) -->
     <g transform="translate(548.439646 282.597416) scale(0.1 -0.1)">
      <defs>
       <path id="DejaVuSans-35" d="M 2841 2188 
Q 3044 2119 3236 1894 
Q 3428 1669 3622 1275 
L 4263 0 
L 3584 0 
L 2988 1197 
Q 2756 1666 2539 1819 
Q 2322 1972 1947 1972 
L 1259 1972 
L 1259 0 
L 628 0 
L 628 4666 
L 2053 4666 
Q 2853 4666 3247 4331 
Q 3641 3997 3641 3322 
Q 3641 2881 3436 2590 
Q 3231 2300 2841 2188 
z
M 1259 4147 
L 1259 2491 
L 2053 2491 
Q 2509 2491 2742 2702 
Q 2975 2913 2975 3322 
Q 2975 3731 2742 3939 
Q 2509 4147 2053 4147 
L 1259 4147 
z
" transform="scale(0.015625)"/>
       <path id="DejaVuSans-58" d="M 544 1381 
L 544 3500 
L 1119 3500 
L 1119 1403 
Q 1119 906 1312 657 
Q 1506 409 1894 409 
Q 2359 409 2629 706 
Q 2900 1003 2900 1516 
L 2900 3500 
L 3475 3500 
L 3475 0 
L 2900 0 
L 2900 538 
Q 2691 219 2414 64 
Q 2138 -91 1772 -91 
Q 1169 -91 856 284 
Q 544 659 544 1381 
z
M 1991 3584 
L 1991 3584 
z
" transform="scale(0.015625)"/>
       <path id="DejaVuSans-5a" d="M 269 3500 
L 844 3500 
L 1563 769 
L 2278 3500 
L 2956 3500 
L 3675 769 
L 4391 3500 
L 4966 3500 
L 4050 0 
L 3372 0 
L 2619 2869 
L 1863 0 
L 1184 0 
L 269 3500 
z
" transform="scale(0.015625)"/>
      </defs>
      <use xlink:href="#DejaVuSans-35"/>
      <use xlink:href="#DejaVuSans-58" transform="translate(65 0)"/>
      <use xlink:href="#DejaVuSans-51" transform="translate(128.375 0)"/>
      <use xlink:href="#DejaVuSans-3" transform="translate(191.75 0)"/>
      <use xlink:href="#DejaVuSans-5a" transform="translate(223.53125 0)"/>
      <use xlink:href="#DejaVuSans-44" transform="translate(305.3125 0)"/>
      <use xlink:href="#DejaVuSans-4f" transform="translate(366.59375 0)"/>
      <use xlink:href="#DejaVuSans-4f" transform="translate(394.375 0)"/>
      <use xlink:href="#DejaVuSans-3" transform="translate(422.15625 0)"/>
      <use xlink:href="#DejaVuSans-57" transform="translate(453.9375 0)"/>
      <use xlink:href="#DejaVuSans-4c" transform="translate(493.140625 0)"/>
      <use xlink:href="#DejaVuSans-50" transform="translate(520.921875 0)"/>
      <use xlink:href="#DejaVuSans-48" transform="translate(618.328125 0)"/>
      <use xlink:href="#DejaVuSans-3" transform="translate(679.859375 0)"/>
      <use xlink:href="#DejaVuSans-b" transform="translate(711.640625 0)"/>
      <use xlink:href="#DejaVuSans-50" transform="translate(750.65625 0)"/>
      <use xlink:href="#DejaVuSans-4c" transform="translate(848.0625 0)"/>
      <use xlink:href="#DejaVuSans-51" transform="translate(875.84375 0)"/>
      <use xlink:href="#DejaVuSans-58" transform="translate(939.21875 0)"/>
      <use xlink:href="#DejaVuSans-57" transform="translate(1002.59375 0)"/>
      <use xlink:href="#DejaVuSans-48" transform="translate(1041.796875 0)"/>
      <use xlink:href="#DejaVuSans-56" transform="translate(1103.328125 0)"/>
      <use xlink:href="#DejaVuSans-c" transform="translate(1155.421875 0)"/>
     </g>
    </g>
   </g>
   <g id="matplotlib.axis_4">
    <g id="ytick_7">
     <g id="line2d_39">
      <path d="M 427.323281 250.072798 
L 788.99976 250.072798 
" clip-path="url(#pa065a32e80)" style="fill: none; stroke: #b0b0b0; stroke-opacity: 0.2; stroke-width: 0.8; stroke-linecap: square"/>
     </g>
     <g id="line2d_40">
      <g>
       <use xlink:href="#m6cb8876baa" x="427.323281" y="250.072798" style="stroke: #000000; stroke-width: 0.8"/>
      </g>
     </g>
     <g id="text_23">
      <!-- 4 -->
      <g transform="translate(413.960781 253.871627) scale(0.1 -0.1)">
       <use xlink:href="#DejaVuSans-17"/>
      </g>
     </g>
    </g>
    <g id="ytick_8">
     <g id="line2d_41">
      <path d="M 427.323281 208.548311 
L 788.99976 208.548311 
" clip-path="url(#pa065a32e80)" style="fill: none; stroke: #b0b0b0; stroke-opacity: 0.2; stroke-width: 0.8; stroke-linecap: square"/>
     </g>
     <g id="line2d_42">
      <g>
       <use xlink:href="#m6cb8876baa" x="427.323281" y="208.548311" style="stroke: #000000; stroke-width: 0.8"/>
      </g>
     </g>
     <g id="text_24">
      <!-- 5 -->
      <g transform="translate(413.960781 212.347139) scale(0.1 -0.1)">
       <use xlink:href="#DejaVuSans-18"/>
      </g>
     </g>
    </g>
    <g id="ytick_9">
     <g id="line2d_43">
      <path d="M 427.323281 167.023823 
L 788.99976 167.023823 
" clip-path="url(#pa065a32e80)" style="fill: none; stroke: #b0b0b0; stroke-opacity: 0.2; stroke-width: 0.8; stroke-linecap: square"/>
     </g>
     <g id="line2d_44">
      <g>
       <use xlink:href="#m6cb8876baa" x="427.323281" y="167.023823" style="stroke: #000000; stroke-width: 0.8"/>
      </g>
     </g>
     <g id="text_25">
      <!-- 6 -->
      <g transform="translate(413.960781 170.822652) scale(0.1 -0.1)">
       <use xlink:href="#DejaVuSans-19"/>
      </g>
     </g>
    </g>
    <g id="ytick_10">
     <g id="line2d_45">
      <path d="M 427.323281 125.499336 
L 788.99976 125.499336 
" clip-path="url(#pa065a32e80)" style="fill: none; stroke: #b0b0b0; stroke-opacity: 0.2; stroke-width: 0.8; stroke-linecap: square"/>
     </g>
     <g id="line2d_46">
      <g>
       <use xlink:href="#m6cb8876baa" x="427.323281" y="125.499336" style="stroke: #000000; stroke-width: 0.8"/>
      </g>
     </g>
     <g id="text_26">
      <!-- 7 -->
      <g transform="translate(413.960781 129.298164) scale(0.1 -0.1)">
       <use xlink:href="#DejaVuSans-1a"/>
      </g>
     </g>
    </g>
    <g id="ytick_11">
     <g id="line2d_47">
      <path d="M 427.323281 83.974848 
L 788.99976 83.974848 
" clip-path="url(#pa065a32e80)" style="fill: none; stroke: #b0b0b0; stroke-opacity: 0.2; stroke-width: 0.8; stroke-linecap: square"/>
     </g>
     <g id="line2d_48">
      <g>
       <use xlink:href="#m6cb8876baa" x="427.323281" y="83.974848" style="stroke: #000000; stroke-width: 0.8"/>
      </g>
     </g>
     <g id="text_27">
      <!-- 8 -->
      <g transform="translate(413.960781 87.773676) scale(0.1 -0.1)">
       <use xlink:href="#DejaVuSans-1b"/>
      </g>
     </g>
    </g>
    <g id="ytick_12">
     <g id="line2d_49">
      <path d="M 427.323281 42.450361 
L 788.99976 42.450361 
" clip-path="url(#pa065a32e80)" style="fill: none; stroke: #b0b0b0; stroke-opacity: 0.2; stroke-width: 0.8; stroke-linecap: square"/>
     </g>
     <g id="line2d_50">
      <g>
       <use xlink:href="#m6cb8876baa" x="427.323281" y="42.450361" style="stroke: #000000; stroke-width: 0.8"/>
      </g>
     </g>
     <g id="text_28">
      <!-- 9 -->
      <g transform="translate(413.960781 46.249189) scale(0.1 -0.1)">
       <use xlink:href="#DejaVuSans-1c"/>
      </g>
     </g>
    </g>
    <g id="text_29">
     <!-- Cross-entropy (nats/token) -->
     <g transform="translate(407.558438 204.308131) rotate(-90) scale(0.1 -0.1)">
      <use xlink:href="#DejaVuSans-26"/>
      <use xlink:href="#DejaVuSans-55" transform="translate(69.828125 0)"/>
      <use xlink:href="#DejaVuSans-52" transform="translate(108.734375 0)"/>
      <use xlink:href="#DejaVuSans-56" transform="translate(169.921875 0)"/>
      <use xlink:href="#DejaVuSans-56" transform="translate(222.015625 0)"/>
      <use xlink:href="#DejaVuSans-10" transform="translate(274.109375 0)"/>
      <use xlink:href="#DejaVuSans-48" transform="translate(310.1875 0)"/>
      <use xlink:href="#DejaVuSans-51" transform="translate(371.71875 0)"/>
      <use xlink:href="#DejaVuSans-57" transform="translate(435.09375 0)"/>
      <use xlink:href="#DejaVuSans-55" transform="translate(474.296875 0)"/>
      <use xlink:href="#DejaVuSans-52" transform="translate(513.203125 0)"/>
      <use xlink:href="#DejaVuSans-53" transform="translate(574.390625 0)"/>
      <use xlink:href="#DejaVuSans-5c" transform="translate(637.875 0)"/>
      <use xlink:href="#DejaVuSans-3" transform="translate(697.0625 0)"/>
      <use xlink:href="#DejaVuSans-b" transform="translate(728.84375 0)"/>
      <use xlink:href="#DejaVuSans-51" transform="translate(767.859375 0)"/>
      <use xlink:href="#DejaVuSans-44" transform="translate(831.234375 0)"/>
      <use xlink:href="#DejaVuSans-57" transform="translate(892.515625 0)"/>
      <use xlink:href="#DejaVuSans-56" transform="translate(931.71875 0)"/>
      <use xlink:href="#DejaVuSans-12" transform="translate(983.8125 0)"/>
      <use xlink:href="#DejaVuSans-57" transform="translate(1017.5 0)"/>
      <use xlink:href="#DejaVuSans-52" transform="translate(1056.703125 0)"/>
      <use xlink:href="#DejaVuSans-4e" transform="translate(1117.890625 0)"/>
      <use xlink:href="#DejaVuSans-48" transform="translate(1172.234375 0)"/>
      <use xlink:href="#DejaVuSans-51" transform="translate(1233.765625 0)"/>
      <use xlink:href="#DejaVuSans-c" transform="translate(1297.140625 0)"/>
     </g>
    </g>
   </g>
   <g id="line2d_51">
    <path d="M 444.392363 31.592445 
L 446.905991 93.946847 
L 449.628556 163.015456 
L 452.948446 193.013047 
L 455.814171 205.587711 
L 459.232433 220.244046 
L 462.116528 232.261518 
L 465.508918 237.73032 
L 468.388525 240.264515 
L 471.808375 241.92199 
L 474.677798 243.408191 
L 478.163486 240.292409 
L 480.816325 233.014556 
L 483.861154 229.884104 
L 486.726156 214.082878 
L 490.079744 202.596774 
L 493.240517 212.727247 
L 496.658451 215.1697 
L 499.713699 205.965249 
L 503.162794 203.265753 
L 506.351829 197.893108 
L 510.323023 197.778766 
L 513.53918 190.282833 
L 517.02875 187.201436 
L 520.23553 189.089713 
L 523.742494 188.795574 
L 526.891014 194.170631 
L 530.408047 203.113981 
L 533.624603 202.918713 
L 537.044406 196.890551 
L 540.275727 199.588231 
L 543.710561 192.998076 
L 546.90782 186.266914 
L 550.398778 178.493917 
L 553.551338 177.320869 
L 557.108235 184.877728 
L 560.334243 192.333394 
L 563.789558 188.572688 
L 566.957485 181.07031 
L 570.301304 178.750712 
L 573.388249 179.194376 
L 577.278718 181.996819 
L 580.441996 183.707466 
L 583.889419 178.270289 
L 586.964823 169.242728 
L 590.390162 178.857775 
L 593.599172 183.43031 
L 597.010618 189.875021 
L 600.166627 194.749722 
L 603.569166 197.628089 
L 606.720694 190.967398 
L 610.197176 185.007274 
L 613.346948 177.580442 
L 616.709091 174.463409 
L 619.8697 174.591294 
L 623.264055 177.59478 
L 626.411283 183.049437 
L 629.865164 187.267274 
L 632.994654 184.196354 
L 636.40424 180.008009 
L 639.622251 186.273185 
L 643.478129 185.026039 
L 646.654322 184.510664 
L 650.195541 183.97995 
L 653.411705 175.633709 
L 656.872637 173.787474 
L 660.085998 177.61238 
L 663.507309 174.370321 
L 666.744584 178.314046 
L 670.226811 187.920609 
L 673.408157 192.283958 
L 676.88755 194.751567 
L 680.04144 198.647349 
L 683.501709 204.126509 
L 686.645834 209.620145 
L 690.101729 206.799302 
L 693.324531 207.27156 
L 696.872487 207.328882 
L 699.995127 203.467561 
L 703.487687 202.775303 
L 706.63165 195.344451 
L 710.510816 190.536553 
L 713.810262 187.700452 
L 717.136564 194.515057 
L 720.33262 203.97639 
L 723.846412 207.650655 
L 726.973413 208.834403 
L 730.52234 204.778272 
L 733.727967 205.979987 
L 737.101638 211.625587 
L 740.231845 198.601153 
L 743.612502 188.735578 
L 746.690441 192.005717 
L 750.018778 191.478988 
L 753.047265 190.255575 
L 756.306179 186.589393 
L 759.342845 189.251655 
L 762.65546 183.669873 
L 765.769108 190.443414 
L 769.168871 192.487312 
L 772.293056 191.01722 
" clip-path="url(#pa065a32e80)" style="fill: none; stroke: #2563eb; stroke-width: 1.6; stroke-linecap: square"/>
   </g>
   <g id="line2d_52">
    <path d="M 443.763121 31.644853 
L 449.869613 173.588626 
L 456.053524 212.777378 
L 462.3885 234.347148 
L 468.651105 239.291045 
L 474.911359 243.091737 
L 481.03438 233.601597 
L 486.977917 207.364386 
L 493.525136 215.785852 
L 499.990735 202.49718 
L 506.634485 194.161559 
L 513.823051 185.519621 
L 520.521786 196.191603 
L 527.188762 202.765653 
L 533.909051 193.489334 
L 540.550652 191.494261 
L 547.19926 181.731727 
L 553.852609 181.538882 
L 560.633599 191.540641 
L 567.217642 183.606878 
L 573.646005 180.473275 
L 580.734714 179.887232 
L 587.239767 173.304931 
L 593.866434 186.227296 
L 600.450962 194.05382 
L 607.015081 180.620464 
L 613.636244 176.959368 
L 620.093227 168.672436 
L 626.678817 182.960786 
L 633.267117 180.559141 
L 639.893458 184.353599 
L 646.9561 182.241221 
L 653.661374 179.24243 
L 660.379584 178.349347 
L 667.012444 183.849079 
L 673.691812 192.815588 
L 680.315853 198.761215 
L 686.933599 207.259049 
L 693.635302 209.470667 
L 700.268975 198.903754 
L 706.924434 191.04542 
L 714.018413 189.980202 
L 720.604349 204.960394 
L 727.275956 208.501451 
L 734.029433 208.249177 
L 740.513512 176.165199 
L 746.957173 193.080558 
L 753.304647 183.840417 
L 759.616714 184.332938 
L 766.05512 186.512031 
L 772.55992 186.071561 
" clip-path="url(#pa065a32e80)" style="fill: none; stroke: #e76f24; stroke-width: 1.6; stroke-linecap: square"/>
   </g>
   <g id="patch_9">
    <path d="M 427.323281 253.998979 
L 427.323281 21.001657 
" style="fill: none; stroke: #000000; stroke-width: 0.8; stroke-linejoin: miter; stroke-linecap: square"/>
   </g>
   <g id="patch_10">
    <path d="M 788.99976 253.998979 
L 788.99976 21.001657 
" style="fill: none; stroke: #000000; stroke-width: 0.8; stroke-linejoin: miter; stroke-linecap: square"/>
   </g>
   <g id="patch_11">
    <path d="M 427.323281 253.998979 
L 788.99976 253.998979 
" style="fill: none; stroke: #000000; stroke-width: 0.8; stroke-linejoin: miter; stroke-linecap: square"/>
   </g>
   <g id="patch_12">
    <path d="M 427.323281 21.001657 
L 788.99976 21.001657 
" style="fill: none; stroke: #000000; stroke-width: 0.8; stroke-linejoin: miter; stroke-linecap: square"/>
   </g>
   <g id="legend_2">
    <g id="patch_13">
     <path d="M 726.72476 59.00322 
L 781.99976 59.00322 
Q 783.99976 59.00322 783.99976 57.00322 
L 783.99976 28.001657 
Q 783.99976 26.001657 781.99976 26.001657 
L 726.72476 26.001657 
Q 724.72476 26.001657 724.72476 28.001657 
L 724.72476 57.00322 
Q 724.72476 59.00322 726.72476 59.00322 
z
" style="fill: #ffffff; opacity: 0.8; stroke: #cccccc; stroke-linejoin: miter"/>
    </g>
    <g id="line2d_53">
     <path d="M 728.72476 34.100095 
L 738.72476 34.100095 
L 748.72476 34.100095 
" style="fill: none; stroke: #2563eb; stroke-width: 1.6; stroke-linecap: square"/>
    </g>
    <g id="text_30">
     <!-- train -->
     <g transform="translate(756.72476 37.600095) scale(0.1 -0.1)">
      <use xlink:href="#DejaVuSans-57"/>
      <use xlink:href="#DejaVuSans-55" transform="translate(39.203125 0)"/>
      <use xlink:href="#DejaVuSans-44" transform="translate(80.3125 0)"/>
      <use xlink:href="#DejaVuSans-4c" transform="translate(141.59375 0)"/>
      <use xlink:href="#DejaVuSans-51" transform="translate(169.375 0)"/>
     </g>
    </g>
    <g id="line2d_54">
     <path d="M 728.72476 49.100876 
L 738.72476 49.100876 
L 748.72476 49.100876 
" style="fill: none; stroke: #e76f24; stroke-width: 1.6; stroke-linecap: square"/>
    </g>
    <g id="text_31">
     <!-- eval -->
     <g transform="translate(756.72476 52.600876) scale(0.1 -0.1)">
      <use xlink:href="#DejaVuSans-48"/>
      <use xlink:href="#DejaVuSans-59" transform="translate(61.53125 0)"/>
      <use xlink:href="#DejaVuSans-44" transform="translate(120.71875 0)"/>
      <use xlink:href="#DejaVuSans-4f" transform="translate(182 0)"/>
     </g>
    </g>
   </g>
  </g>
  <g id="text_32">
   <!-- lr_1e1 -->
   <g transform="translate(377.539688 12.118365) scale(0.12 -0.12)">
    <defs>
     <path id="DejaVuSans-42" d="M 3263 -1063 
L 3263 -1509 
L -63 -1509 
L -63 -1063 
L 3263 -1063 
z
" transform="scale(0.015625)"/>
    </defs>
    <use xlink:href="#DejaVuSans-4f"/>
    <use xlink:href="#DejaVuSans-55" transform="translate(27.78125 0)"/>
    <use xlink:href="#DejaVuSans-42" transform="translate(68.890625 0)"/>
    <use xlink:href="#DejaVuSans-14" transform="translate(118.890625 0)"/>
    <use xlink:href="#DejaVuSans-48" transform="translate(182.515625 0)"/>
    <use xlink:href="#DejaVuSans-14" transform="translate(244.046875 0)"/>
   </g>
  </g>
 </g>
 <defs>
  <clipPath id="p5091e52940">
   <rect x="30.363521" y="21.001657" width="361.676479" height="232.997321"/>
  </clipPath>
  <clipPath id="pa065a32e80">
   <rect x="427.323281" y="21.001657" width="361.676479" height="232.997321"/>
  </clipPath>
 </defs>
</svg>
